<?xml version="1.0" encoding="iso-8859-1"?>
<!-- Generator: Adobe Illustrator 19.0.0, SVG Export Plug-In . SVG Version: 6.00 Build 0)  -->
<svg version="1.1" id="Capa_1" xmlns="http://www.w3.org/2000/svg" xmlns:xlink="http://www.w3.org/1999/xlink" x="0px" y="0px"
	 viewBox="0 0 480 480" style="enable-background:new 0 0 480 480;" xml:space="preserve">
<path style="fill:#A9BFD1;" d="M472,468H8c-4.418,0-8-3.582-8-8s3.582-8,8-8h464c4.418,0,8,3.582,8,8S476.418,468,472,468z"/>
<path style="fill:#124375;" d="M420.8,236H344v-48H104v240h240h40h48h40V317.232L420.8,236z"/>
<g>
	<path style="fill:#A9BFD1;" d="M120,412H24c-4.418,0-8-3.582-8-8s3.582-8,8-8h96c4.418,0,8,3.582,8,8S124.418,412,120,412z"/>
	<path style="fill:#A9BFD1;" d="M120,316H8c-4.418,0-8-3.582-8-8s3.582-8,8-8h112c4.418,0,8,3.582,8,8S124.418,316,120,316z"/>
	<path style="fill:#A9BFD1;" d="M120,228H64c-4.418,0-8-3.582-8-8s3.582-8,8-8h56c4.418,0,8,3.582,8,8S124.418,228,120,228z"/>
	<path style="fill:#A9BFD1;" d="M32,228h-8c-4.418,0-8-3.582-8-8s3.582-8,8-8h8c4.418,0,8,3.582,8,8S36.418,228,32,228z"/>
</g>
<path style="fill:#E6EAFC;" d="M104,188h240v240H104V188z"/>
<path style="fill:#0E3454;" d="M344,236h16v192h-16V236z"/>
<g>
	<circle style="fill:#545459;" cx="168" cy="428" r="32"/>
	<circle style="fill:#545459;" cx="408" cy="428" r="32"/>
</g>
<g>
	<path style="fill:#D14343;" d="M280,284h-88c-4.418,0-8-3.582-8-8s3.582-8,8-8h88c4.418,0,8,3.582,8,8S284.418,284,280,284z"/>
	<path style="fill:#D14343;" d="M248,316c-4.418-0.001-7.999-3.583-7.998-8.002c0-2.121,0.843-4.154,2.342-5.654L268.688,276
		l-26.344-26.344c-3.069-3.178-2.982-8.243,0.196-11.312c3.1-2.994,8.015-2.994,11.116,0l32,32c3.123,3.124,3.123,8.188,0,11.312
		l-32,32C252.156,315.156,250.122,316,248,316z"/>
	<path style="fill:#D14343;" d="M248,348h-88c-4.418,0-8-3.582-8-8s3.582-8,8-8h88c4.418,0,8,3.582,8,8S252.418,348,248,348z"/>
	<path style="fill:#D14343;" d="M192,380c-2.122,0-4.156-0.844-5.656-2.344l-32-32c-3.123-3.124-3.123-8.188,0-11.312l32-32
		c3.178-3.069,8.243-2.982,11.312,0.196c2.994,3.1,2.994,8.015,0,11.116L171.312,340l26.344,26.344
		c3.124,3.125,3.123,8.19-0.002,11.314C196.154,379.157,194.121,380,192,380L192,380z"/>
</g>
<path style="fill:#0E3454;" d="M392,356h-16c-4.418,0-8-3.582-8-8s3.582-8,8-8h16c4.418,0,8,3.582,8,8S396.418,356,392,356z"/>
<path style="fill:#95CEDB;" d="M376,268h28l28,48h-56V268z"/>
<path style="fill:#6AA1AA;" d="M376,316v-48h16L376,316z"/>
<path style="fill:#4091DB;" d="M420,14.344L416,12l-4,2.344c-18.116,10.524-39.436,14.114-60,10.104v89.032
	c0.009,10.986,3.076,21.753,8.856,31.096c6.807,10.963,16.879,19.516,28.8,24.456L416,180l26.328-10.968
	c11.921-4.94,21.993-13.493,28.8-24.456c5.786-9.341,8.858-20.108,8.872-31.096V24.448C459.436,28.458,438.116,24.868,420,14.344
	L420,14.344z"/>
<path style="fill:#2273AF;" d="M416,180l26.328-10.968c11.921-4.94,21.993-13.493,28.8-24.456
	c5.786-9.341,8.858-20.108,8.872-31.096V24.448c-20.564,4.01-41.884,0.42-60-10.104L416,12V180z"/>
<g>
</g>
<g>
</g>
<g>
</g>
<g>
</g>
<g>
</g>
<g>
</g>
<g>
</g>
<g>
</g>
<g>
</g>
<g>
</g>
<g>
</g>
<g>
</g>
<g>
</g>
<g>
</g>
<g>
</g>
</svg>
