<?xml version="1.0" encoding="iso-8859-1"?>
<!-- Generator: Adobe Illustrator 19.0.0, SVG Export Plug-In . SVG Version: 6.00 Build 0)  -->
<svg version="1.1" id="Capa_1" xmlns="http://www.w3.org/2000/svg" xmlns:xlink="http://www.w3.org/1999/xlink" x="0px" y="0px"
	 viewBox="0 0 512 512" style="enable-background:new 0 0 512 512;" xml:space="preserve">
<path style="fill:#ED1C24;" d="M59.733,298.667h59.733V486.4H59.733V298.667z"/>
<path style="fill:#0071BC;" d="M153.6,187.733h59.733V486.4H153.6V187.733z"/>
<path style="fill:#F7931E;" d="M247.467,247.467H307.2V486.4h-59.733V247.467z"/>
<path style="fill:#0071BC;" d="M341.333,102.4h59.733v384h-59.733V102.4z"/>
<path style="fill:#2E3192;" d="M435.2,25.6h59.733v460.8H435.2V25.6z"/>
<path style="fill:#29485A;" d="M503.467,477.867H34.133V8.533C34.133,3.823,30.31,0,25.6,0s-8.533,3.823-8.533,8.533v110.933H8.533
	C3.823,119.467,0,123.29,0,128c0,4.71,3.823,8.533,8.533,8.533h8.533v110.933H8.533C3.823,247.467,0,251.29,0,256
	c0,4.71,3.823,8.533,8.533,8.533h8.533v110.933H8.533C3.823,375.467,0,379.29,0,384s3.823,8.533,8.533,8.533h8.533v85.333H8.533
	C3.823,477.867,0,481.69,0,486.4s3.823,8.533,8.533,8.533h8.533v8.533c0,4.71,3.823,8.533,8.533,8.533s8.533-3.823,8.533-8.533
	v-8.533h85.333v8.533c0,4.71,3.823,8.533,8.533,8.533c4.71,0,8.533-3.823,8.533-8.533v-8.533h85.333v8.533
	c0,4.71,3.823,8.533,8.533,8.533s8.533-3.823,8.533-8.533v-8.533h85.333v8.533c0,4.71,3.823,8.533,8.533,8.533
	s8.533-3.823,8.533-8.533v-8.533h85.333v8.533c0,4.71,3.823,8.533,8.533,8.533s8.533-3.823,8.533-8.533v-8.533h59.733
	c4.71,0,8.533-3.823,8.533-8.533S508.177,477.867,503.467,477.867z"/>
<g>
</g>
<g>
</g>
<g>
</g>
<g>
</g>
<g>
</g>
<g>
</g>
<g>
</g>
<g>
</g>
<g>
</g>
<g>
</g>
<g>
</g>
<g>
</g>
<g>
</g>
<g>
</g>
<g>
</g>
</svg>
